<?xml version="1.0" standalone="no"?>
<!DOCTYPE svg PUBLIC "-//W3C//DTD SVG 20010904//EN"
 "http://www.w3.org/TR/2001/REC-SVG-20010904/DTD/svg10.dtd">
<svg version="1.0" xmlns="http://www.w3.org/2000/svg"
 width="591.000000pt" height="412.000000pt" viewBox="0 0 591.000000 412.000000"
 preserveAspectRatio="xMidYMid meet">

<g transform="translate(0.000000,412.000000) scale(0.100000,-0.100000)"
fill="#000000" stroke="none">
<path d="M3058 3930 c-188 -104 -359 -174 -558 -230 -356 -100 -652 -270 -875
-501 -83 -86 -189 -215 -197 -241 -2 -6 -26 1 -57 16 -138 70 -368 92 -506 47
-169 -54 -306 -145 -403 -267 -72 -92 -111 -162 -145 -264 -115 -350 3 -709
299 -906 169 -112 317 -158 505 -158 l127 1 32 -83 c94 -242 291 -506 505
-677 200 -159 470 -295 696 -351 169 -42 244 -50 439 -50 161 1 202 5 315 28
350 73 611 205 893 454 152 135 329 391 413 600 l33 82 112 0 c193 0 391 54
525 143 35 23 100 78 145 123 65 65 89 99 127 175 71 143 90 232 85 398 -4
115 -9 148 -32 216 -88 257 -291 453 -557 537 -62 19 -94 23 -199 22 -138 -1
-238 -22 -330 -69 -29 -15 -56 -23 -59 -18 -4 4 -39 49 -77 98 -227 296 -598
551 -888 610 -113 24 -116 25 -116 41 0 9 14 58 32 111 36 105 34 113 -32 113
-19 0 -48 9 -65 20 -48 32 -102 26 -187 -20z m59 -194 c-3 -12 -24 -70 -47
-131 -52 -137 -49 -155 20 -155 66 0 92 12 145 65 l45 45 83 -26 c177 -56 427
-203 605 -356 229 -196 396 -459 428 -672 8 -54 15 -185 16 -321 1 -202 -1
-240 -20 -315 -43 -175 -109 -348 -196 -509 -82 -153 -305 -384 -431 -448 -27
-14 -52 -29 -55 -33 -3 -4 -20 -11 -37 -14 -18 -4 -31 -13 -30 -19 1 -6 -6
-11 -17 -12 -15 0 -28 -12 -43 -43 -1 -3 -27 -9 -45 -11 -5 -1 -8 -10 -8 -21
0 -16 -6 -19 -34 -18 -34 1 -32 3 54 59 163 108 265 231 336 408 50 123 59
177 58 341 0 145 -2 161 -30 241 l-29 87 60 63 c71 75 134 191 166 305 34 119
32 299 -4 409 -57 174 -188 332 -347 422 -94 53 -168 73 -295 80 -82 5 -115 2
-185 -16 -107 -26 -207 -75 -287 -140 l-63 -51 -66 51 c-144 109 -284 157
-463 161 -86 1 -120 -3 -181 -21 -159 -48 -314 -152 -402 -268 -67 -87 -84
-120 -117 -220 -27 -79 -31 -105 -31 -200 0 -200 74 -394 196 -518 l63 -65
-19 -42 c-47 -109 -65 -348 -36 -485 27 -132 124 -309 229 -420 28 -29 45 -53
39 -53 -11 0 -37 23 -44 37 -4 9 -40 29 -195 107 -76 38 -131 74 -173 113 -70
65 -179 213 -236 321 -35 66 -54 88 -54 62 0 -5 4 -10 8 -10 4 0 7 -23 5 -50
-3 -33 0 -50 8 -50 6 0 8 -7 5 -16 -4 -11 -1 -14 13 -9 13 4 20 0 24 -15 3
-11 1 -20 -4 -20 -5 0 -9 8 -9 17 0 12 -3 14 -11 6 -7 -7 -2 -26 19 -64 52
-98 54 -125 3 -35 -71 124 -162 416 -181 581 -25 225 -4 455 61 648 40 121
106 262 163 352 18 28 45 70 61 94 36 57 194 221 264 275 232 177 373 249 603
310 136 36 315 98 353 122 11 7 51 25 88 39 38 14 94 38 125 54 62 31 87 30
79 -3z m-571 -776 c95 -25 159 -62 260 -153 69 -62 80 -68 108 -63 35 7 89 41
144 90 100 89 204 135 323 143 164 12 302 -40 420 -157 103 -103 149 -221 149
-380 -1 -210 -88 -373 -241 -451 -35 -17 -66 -33 -68 -35 -2 -2 15 -33 39 -68
69 -106 84 -167 84 -336 0 -168 -15 -245 -72 -354 -89 -170 -289 -312 -542
-382 -51 -15 -100 -18 -230 -18 -219 0 -318 21 -478 99 -102 51 -125 67 -207
148 -139 138 -190 253 -199 443 -8 208 18 316 100 413 19 21 31 41 28 44 -3 3
-30 17 -59 32 -59 29 -139 109 -178 179 -57 102 -80 223 -67 352 11 104 38
180 94 258 127 177 361 255 592 196z m-1315 -95 c71 -26 109 -47 109 -63 0 -8
-13 -36 -29 -61 -16 -25 -42 -74 -57 -109 -20 -46 -31 -61 -43 -58 -210 61
-447 -89 -482 -305 -32 -198 145 -413 359 -435 l62 -7 2 -48 c1 -27 2 -59 2
-71 1 -25 1 -25 -106 -33 -76 -6 -184 23 -256 69 -59 37 -211 177 -251 230
-19 25 -36 44 -38 42 -8 -7 16 -53 45 -86 20 -22 27 -38 22 -46 -6 -7 1 -18
20 -33 33 -24 38 -38 14 -38 -17 0 -66 66 -58 79 3 4 1 8 -5 8 -31 0 -101 253
-101 367 1 167 74 338 191 447 86 79 206 142 309 161 86 16 230 11 291 -10z
m3656 9 c112 -23 226 -81 300 -153 71 -70 156 -202 181 -281 21 -68 23 -311 3
-380 -33 -113 -114 -250 -148 -250 -7 0 -13 -6 -13 -12 -1 -14 -73 -68 -90
-68 -6 0 -10 -4 -10 -10 0 -12 -55 -41 -64 -33 -3 4 -6 2 -6 -4 0 -14 -49 -35
-62 -27 -6 4 -8 2 -5 -3 6 -10 -28 -22 -123 -43 -55 -12 -220 -13 -220 -2 0
10 17 106 31 180 l10 52 49 0 c66 0 165 33 228 75 63 43 134 136 157 206 53
160 -43 358 -213 437 -50 24 -69 27 -162 27 -58 0 -114 -3 -125 -7 -18 -7 -25
4 -64 95 -25 56 -51 110 -60 120 -16 20 -17 18 29 39 120 55 248 69 377 42z
m-3729 -460 c27 -5 29 -9 22 -28 -17 -40 -40 -174 -46 -276 l-7 -102 -41 6
c-79 13 -188 98 -201 158 -12 55 39 166 95 205 52 36 115 49 178 37z m3667
-13 c74 -34 135 -117 135 -184 0 -41 -44 -112 -95 -155 -34 -27 -137 -62 -184
-62 -7 0 -11 36 -11 98 0 53 -7 142 -15 196 -8 55 -15 105 -15 113 0 21 135
17 185 -6z m-4145 -630 c0 -5 12 -12 28 -14 20 -3 18 -4 -9 -4 -22 1 -36 6
-36 14 0 7 4 13 9 13 4 0 8 -4 8 -9z m76 -45 c3 -7 19 -16 35 -20 17 -3 45
-18 64 -32 19 -15 35 -23 35 -19 0 4 6 2 13 -4 8 -6 17 -8 20 -4 4 3 12 1 19
-4 7 -6 27 -14 43 -18 17 -4 24 -10 17 -12 -29 -11 -270 79 -287 107 -4 6 -10
8 -15 5 -5 -3 -11 -2 -14 3 -2 4 11 9 30 10 22 2 36 -2 40 -12z m3676 -128
c-10 -10 -10 -8 -2 37 1 6 4 2 7 -9 3 -10 0 -23 -5 -28z m-3305 5 c-20 -2 -52
-2 -70 0 -17 2 0 4 38 4 39 0 53 -2 32 -4z m3300 -40 c-27 -96 -51 -166 -55
-155 -2 7 3 31 12 53 9 22 14 45 11 50 -4 5 -2 9 3 9 5 0 9 7 10 15 1 8 3 22
4 30 1 8 5 15 10 15 5 0 7 -8 5 -17z m-76 -216 c-8 -8 -11 -7 -11 4 0 20 13
34 18 19 3 -7 -1 -17 -7 -23z m-21 -55 c0 -13 -23 -42 -30 -37 -4 3 -6 -3 -4
-12 3 -10 -6 -31 -18 -46 l-23 -29 -3 26 c-1 14 3 26 8 26 6 0 10 6 10 13 0
27 25 65 42 64 10 -1 18 -3 18 -5z m-2135 -452 c3 -6 -1 -7 -9 -4 -18 7 -21
14 -7 14 6 0 13 -4 16 -10z m1757 -4 c7 4 8 2 4 -4 -11 -18 -26 -14 -25 6 0
10 3 12 6 4 2 -6 10 -9 15 -6z m-1702 -31 c0 -2 -9 -3 -19 -2 -11 0 -18 5 -15
9 4 6 34 0 34 -7z m1638 -32 c-16 -17 -24 -20 -30 -11 -6 10 -8 9 -8 -3 0 -32
-247 -178 -273 -162 -5 3 -7 2 -4 -4 11 -18 -204 -95 -268 -94 -28 0 -35 -3
-25 -9 11 -7 4 -10 -25 -11 -22 -1 -48 -1 -58 -1 -10 1 -16 -2 -13 -7 3 -5
-58 -12 -137 -15 -204 -10 -200 -9 -220 -1 -9 4 -28 5 -42 3 -15 -3 -22 -1
-18 5 4 6 -13 8 -47 5 -48 -5 -51 -4 -29 8 l24 14 -22 6 c-19 5 -23 13 -23 45
l0 39 43 1 c53 0 136 16 95 18 -14 0 -35 4 -45 7 -15 5 -15 4 -3 -5 12 -8 7
-10 -20 -10 -19 1 -27 3 -17 6 9 2 15 8 13 11 -2 4 57 7 132 7 135 0 243 7
272 19 27 10 104 25 109 20 2 -2 -1 -4 -7 -4 -7 0 -12 -4 -12 -10 0 -5 7 -10
15 -10 14 0 20 12 16 34 -1 5 5 6 14 3 8 -4 15 -3 15 1 0 11 101 43 112 36 4
-3 8 -1 8 5 0 6 10 15 21 22 17 9 20 8 16 -3 -2 -7 -10 -12 -16 -10 -7 1 -9
-2 -6 -8 5 -8 13 -6 24 4 10 9 21 16 24 16 15 0 6 -23 -15 -41 -29 -26 -34
-69 -7 -69 10 0 19 5 19 10 0 6 9 10 20 10 11 0 20 5 20 10 0 6 9 10 20 10 11
0 20 5 20 10 0 6 9 10 20 10 11 0 20 5 20 10 0 6 9 10 20 10 11 0 20 5 20 10
0 6 9 10 20 10 11 0 20 5 20 10 0 6 5 10 10 10 6 0 10 -10 10 -22 1 -22 1 -22
12 -3 16 29 40 44 66 45 12 0 22 5 22 10 0 6 9 10 20 10 11 0 20 5 20 10 0 6
17 10 40 8 l40 -2 -22 -23z m-278 -8 c0 -14 -4 -25 -9 -25 -12 0 -23 29 -15
41 10 18 24 9 24 -16z m-1122 -100 c-3 -3 -9 2 -12 12 -6 14 -5 15 5 6 7 -7
10 -15 7 -18z m52 -11 c0 -2 -9 0 -20 6 -11 6 -20 13 -20 16 0 2 9 0 20 -6 11
-6 20 -13 20 -16z m67 -10 c-3 -3 -12 -4 -19 -1 -8 3 -5 6 6 6 11 1 17 -2 13
-5z m40 -10 c-3 -3 -12 -4 -19 -1 -8 3 -5 6 6 6 11 1 17 -2 13 -5z m46 -11
c-7 -2 -19 -2 -25 0 -7 3 -2 5 12 5 14 0 19 -2 13 -5z m-243 -92 c0 -5 8 -12
18 -14 11 -3 8 -5 -9 -6 -17 -1 -26 4 -26 14 0 8 4 15 9 15 4 0 8 -4 8 -9z
m168 -38 c-10 -2 -26 -2 -35 0 -10 3 -2 5 17 5 19 0 27 -2 18 -5z"/>
<path d="M1430 1471 c0 -6 4 -13 10 -16 6 -3 7 1 4 9 -7 18 -14 21 -14 7z"/>
<path d="M2307 2656 c-131 -49 -168 -217 -74 -332 57 -69 145 -91 222 -55 154
70 182 272 50 363 -50 35 -140 46 -198 24z m112 -65 c27 -37 26 -59 -1 -88
-30 -32 -71 -30 -97 4 -24 30 -21 55 12 91 28 31 61 28 86 -7z"/>
<path d="M3345 2656 c-74 -28 -125 -106 -125 -194 0 -99 110 -211 208 -212 71
0 154 57 194 134 42 83 6 205 -77 256 -47 29 -144 36 -200 16z m124 -62 c28
-35 26 -59 -4 -90 -31 -31 -61 -28 -87 7 -16 21 -17 30 -8 55 22 58 66 70 99
28z"/>
<path d="M2654 2094 c-41 -20 -79 -61 -92 -101 -14 -41 0 -103 29 -125 36 -30
66 -23 94 22 14 22 29 40 34 40 21 0 53 -40 86 -108 40 -82 60 -97 120 -85 37
8 43 15 80 83 52 96 61 101 125 68 44 -23 56 -25 82 -16 65 23 71 123 11 180
-36 34 -73 48 -128 48 -54 0 -87 -12 -135 -50 -21 -17 -43 -30 -50 -30 -6 0
-30 16 -53 35 -63 54 -142 69 -203 39z"/>
<path d="M3320 1589 c-47 -40 -180 -104 -260 -125 -172 -44 -401 1 -560 110
-29 20 -59 36 -67 36 -18 0 -80 -65 -89 -94 -17 -54 217 -192 386 -226 108
-22 170 -24 290 -9 152 19 324 91 414 173 39 37 47 49 41 68 -9 30 -79 98
-102 98 -10 -1 -34 -14 -53 -31z"/>
<path d="M580 1841 c0 -5 5 -13 10 -16 6 -3 10 -2 10 4 0 5 -4 13 -10 16 -5 3
-10 2 -10 -4z"/>
<path d="M5129 1803 l-24 -28 28 24 c15 14 27 26 27 28 0 8 -8 1 -31 -24z"/>
<path d="M4968 1724 c-83 -38 -155 -53 -258 -55 -51 -1 -59 -3 -35 -9 22 -6
25 -8 10 -10 -11 -1 -23 -2 -26 -2 -4 1 -9 -6 -11 -16 -4 -12 2 -17 19 -18 15
-1 23 3 20 10 -3 8 4 11 24 8 16 -2 29 -9 29 -14 0 -17 114 3 127 22 7 10 25
21 40 25 16 3 49 20 76 36 26 16 52 29 58 29 5 0 8 4 5 9 -4 5 0 12 6 14 7 3
9 6 3 6 -5 0 -45 -15 -87 -35z"/>
<path d="M3355 680 c-3 -5 -1 -10 4 -10 6 0 11 5 11 10 0 6 -2 10 -4 10 -3 0
-8 -4 -11 -10z"/>
<path d="M3148 623 c7 -3 16 -2 19 1 4 3 -2 6 -13 5 -11 0 -14 -3 -6 -6z"/>
<path d="M2908 593 c12 -2 30 -2 40 0 9 3 -1 5 -23 4 -22 0 -30 -2 -17 -4z"/>
<path d="M3365 530 c-3 -5 1 -10 9 -10 8 0 18 5 21 10 3 6 -1 10 -9 10 -8 0
-18 -4 -21 -10z"/>
</g>
</svg>
